Coordinates
version=1
nRows=17
nColumns=24
inDegrees=yes

Units are S.I. units (second, meters, Newtons, ...)
Angles are in degrees.

endheader
time	pelvis_tilt	pelvis_list	pelvis_rotation	pelvis_tx	pelvis_ty	pelvis_tz	hip_flexion_r	hip_adduction_r	hip_rotation_r	knee_angle_r	ankle_angle_r	subtalar_angle_r	mtp_angle_r	hip_flexion_l	hip_adduction_l	hip_rotation_l	knee_angle_l	ankle_angle_l	subtalar_angle_l	mtp_angle_l	lumbar_extension	lumbar_bending	lumbar_rotation
      2.61500000	    -12.27599309	      8.71767811	     -2.08224897	     -2.33560756	     -0.02842085	     -0.28872722	     19.25725716	    -14.72992446	     -9.19297533	    -61.61676249	    -23.76205169	    -19.92216601	     13.19829793	     26.73813785	      9.65273223	     -8.48907937	    -18.74452431	     -2.08347585	    -13.13939576	      1.31415960	      7.93890492	     -9.36738028	      2.37978494
      2.62000000	    -12.26313442	      8.45549160	     -2.00754951	     -2.32847979	     -0.02709571	     -0.28941239	     20.14046240	    -14.38705953	     -9.10401298	    -62.11705550	    -22.71845317	    -19.55814110	     13.60897657	     26.03584830	      9.52961411	     -8.24997763	    -18.40440256	     -1.69381764	    -12.95960950	      1.37641176	      7.88564737	     -9.08654506	      2.22756613
      2.62500000	    -12.26948973	      8.28479249	     -1.90052566	     -2.32149240	     -0.02589047	     -0.29024395	     21.03667325	    -14.18101628	     -8.99535249	    -62.49945444	    -21.92501946	    -19.15744550	     16.23516392	     25.37353492	      9.52626996	     -7.95969324	    -18.07169886	     -1.34265517	    -12.84337578	      0.96472306	      7.82841334	     -8.89485130	      2.05129312
      2.63000000	    -12.27025270	      8.01279450	     -1.80654653	     -2.31453057	     -0.02465341	     -0.29091720	     21.90338364	    -13.83458606	     -8.95667994	    -62.83059803	    -20.81980912	    -18.53802134	     16.75610809	     24.71156481	      9.38118572	     -7.75713287	    -17.75192955	     -0.99073574	    -12.61983394	      1.05913479	      7.76489458	     -8.60900217	      1.87772184
      2.63500000	    -12.28691594	      7.78032212	     -1.68522479	     -2.30751577	     -0.02349728	     -0.29171615	     22.76148099	    -13.56117680	     -8.94610928	    -63.07485238	    -19.71582154	    -17.79124279	     17.56451180	     24.04210510	      9.30162516	     -7.48640471	    -17.38076407	     -0.68496135	    -12.49224313	      1.10968432	      7.73318334	     -8.35407756	      1.70078482
      2.64000000	    -12.27081070	      7.58197224	     -1.64568524	     -2.30059012	     -0.02231397	     -0.29250132	     23.58555954	    -13.28725535	     -8.81080989	    -63.16533296	    -18.89462300	    -17.15313923	     20.07474320	     23.32225680	      9.24674936	     -7.24020411	    -16.94013314	     -0.55398381	    -12.63854956	      0.92347813	      7.66781346	     -8.10814224	      1.62139627
      2.64500000	    -12.26874913	      7.27996112	     -1.48341224	     -2.29365437	     -0.02115401	     -0.29331869	     24.33274938	    -12.93711686	     -8.86085010	    -63.14047321	    -18.04036003	    -16.51591457	     21.95818719	     22.64123382	      9.09177330	     -6.98618107	    -16.58434671	     -0.19976759	    -12.38580635	      0.90313824	      7.59746089	     -7.78788164	      1.37122607
      2.65000000	    -12.28552015	      6.93882834	     -1.23756666	     -2.28679020	     -0.02004318	     -0.29427172	     25.04322130	    -12.58608352	     -9.03818111	    -62.97632977	    -17.42243631	    -16.16519569	     24.43805875	     21.98579992	      8.93177884	     -6.59957196	    -16.23289286	      0.10546031	    -12.22417836	      0.82737545	      7.52454495	     -7.43525153	      1.02755863
      2.65500000	    -12.28389787	      6.65197510	     -1.05377086	     -2.27991148	     -0.01899814	     -0.29508112	     25.76355245	    -12.25989663	     -9.15314832	    -62.84694391	    -16.35055256	    -15.45367229	     24.93343141	     21.30408796	      8.78385496	     -6.38322915	    -15.84656158	      0.40119955	    -11.99322665	      0.91179856	      7.45237327	     -7.13452642	      0.77981692
      2.66000000	    -12.23712562	      6.39351084	     -0.87775410	     -2.27308565	     -0.01795883	     -0.29589634	     26.41955246	    -11.95920704	     -9.24246803	    -62.62849482	    -15.31423877	    -14.76501740	     25.68381750	     20.56082563	      8.66770660	     -6.11753590	    -15.42246198	      0.63494729	    -11.84196174	      0.96897031	      7.32144557	     -6.86150094	      0.52614295
      2.66500000	    -12.11150430	      6.14141838	     -0.74255671	     -2.26614265	     -0.01682160	     -0.29674322	     26.94344927	    -11.65473282	     -9.29707374	    -62.24803411	    -14.47815907	    -14.20755122	     27.35703357	     19.69317791	      8.55636610	     -5.91448629	    -14.91471586	      0.76231822	    -11.82856859	      0.97109198	      7.13427244	     -6.57464936	      0.33107306
      2.67000000	    -12.11008492	      5.84345093	     -0.49320196	     -2.25937220	     -0.01595104	     -0.29757268	     27.57824940	    -11.33084793	     -9.49215381	    -61.85016509	    -13.55999311	    -13.77289369	     28.05115360	     19.03165081	      8.39211512	     -5.65589982	    -14.54813198	      1.07897162	    -11.52666375	      1.07791987	      7.03782230	     -6.27529287	      0.00979384
      2.67500000	    -11.96613150	      5.57834152	     -0.33498254	     -2.25243979	     -0.01491053	     -0.29840204	     28.02795444	    -11.01308818	     -9.59459508	    -61.31809220	    -12.74692039	    -13.33931503	     29.17377700	     18.15395627	      8.25486665	     -5.47720423	    -14.05043266	      1.22744472	    -11.45909608	      1.10893687	      6.82753043	     -5.97863831	     -0.20498756
      2.68000000	    -11.95409062	      5.30232981	     -0.09555246	     -2.24562410	     -0.01415288	     -0.29923797	     28.61010813	    -10.70943051	     -9.77770691	    -60.77374862	    -11.88050297	    -12.97624150	     29.60819518	     17.47759253	      8.10247819	     -5.25469452	    -13.66267585	      1.49814575	    -11.22517134	      1.18913419	      6.73244467	     -5.69287994	     -0.49747290
      2.68500000	    -11.87391000	      5.04335162	      0.10209248	     -2.23872564	     -0.01334863	     -0.30006243	     29.09372854	    -10.41005864	     -9.92283407	    -60.14011958	    -11.07725316	    -12.61920441	     29.96929751	     16.70303369	      7.95957146	     -5.08172590	    -13.22152555	      1.69508761	    -11.08210791	      1.22697222	      6.58424979	     -5.40860960	     -0.74345944
      2.69000000	    -11.75113985	      4.81163438	      0.27580202	     -2.23187169	     -0.01258689	     -0.30080926	     29.52362169	    -10.11902025	    -10.02807917	    -59.44113136	    -10.36524773	    -12.35674032	     30.33490173	     15.87902839	      7.83174691	     -4.86468658	    -12.77083110	      1.88488985	    -10.96306233	      1.24653699	      6.38235451	     -5.15503026	     -0.96681442
      2.69500000	    -11.69768614	      4.57043006	      0.45759748	     -2.22501211	     -0.01195911	     -0.30155993	     30.00987283	     -9.81845323	    -10.13558105	    -58.67962308	     -9.75224281	    -12.14484658	     30.53931095	     15.15147806	      7.68685719	     -4.70753033	    -12.34881780	      2.06267440	    -10.84747325	      1.25909211	      6.25815409	     -4.88662139	     -1.21391350
